<svg xmlns="http://www.w3.org/2000/svg" width="400" height="400" viewBox="0 0 400 400" role="img" aria-label="Sevi salakot"><defs><linearGradient id="hg" x1="0.2" y1="0" x2="0.85" y2="1"><stop offset="0" stop-color="#1E8A5A"></stop><stop offset="0.55" stop-color="#0C6B45"></stop><stop offset="1" stop-color="#073D28"></stop></linearGradient><radialGradient id="fg" cx="0.42" cy="0.36" r="0.75"><stop offset="0" stop-color="#FFFDF6"></stop><stop offset="1" stop-color="#FBF7EC"></stop></radialGradient></defs><ellipse cx="200" cy="366" rx="96" ry="18" fill="#073D28" opacity="0.28"></ellipse><circle cx="200" cy="228" r="118" fill="url(#hg)"></circle><circle cx="200" cy="228" r="118" fill="none" stroke="#052A1C" stroke-width="2" opacity="0.35"></circle><circle cx="200" cy="232" r="93" fill="url(#fg)"></circle><ellipse cx="158" cy="252" rx="13" ry="9" fill="#EE9F97" opacity="0.55"></ellipse><ellipse cx="242" cy="252" rx="13" ry="9" fill="#EE9F97" opacity="0.55"></ellipse><circle cx="176" cy="222" r="9.5" fill="#0A2417"></circle><circle cx="224" cy="222" r="9.5" fill="#0A2417"></circle><circle cx="179" cy="219" r="3" fill="#FBF7EC"></circle><circle cx="227" cy="219" r="3" fill="#FBF7EC"></circle><path d="M172 250 A 30 30 0 0 0 228 250 Z" fill="#0A2417"></path><ellipse cx="200" cy="146" rx="124" ry="30" fill="#A9803B"></ellipse><ellipse cx="200" cy="140" rx="124" ry="27" fill="#C79A52"></ellipse><path d="M118 140 Q132 72 200 62 Q268 72 282 140 Z" fill="#CFA75E"></path><path d="M140 128 Q200 98 260 128" stroke="#A9803B" stroke-width="3" fill="none" opacity="0.8"></path><path d="M152 108 Q200 84 248 108" stroke="#A9803B" stroke-width="3" fill="none" opacity="0.7"></path><path d="M200 62 L200 90 M168 70 L176 96 M232 70 L224 96" stroke="#A9803B" stroke-width="2.5" opacity="0.5"></path><circle cx="200" cy="60" r="8" fill="#E8B44A"></circle></svg>